<?xml version="1.0" standalone="no"?>
<!DOCTYPE svg PUBLIC "-//W3C//DTD SVG 20010904//EN"
 "http://www.w3.org/TR/2001/REC-SVG-20010904/DTD/svg10.dtd">
<svg version="1.0" xmlns="http://www.w3.org/2000/svg"
 width="512.000000pt" height="512.000000pt" viewBox="0 0 512.000000 512.000000"
 preserveAspectRatio="xMidYMid meet">
<metadata>
Created by potrace 1.14, written by Peter Selinger 2001-2017
</metadata>
<g transform="translate(0.000000,512.000000) scale(0.100000,-0.100000)"
fill="#000000" stroke="none">
<path d="M1314 4781 c-411 -116 -775 -747 -1024 -1776 -41 -169 -77 -335 -96
-445 -2 -14 -6 -34 -9 -46 -3 -12 -7 -39 -10 -60 -3 -21 -10 -61 -15 -89 -5
-27 -12 -70 -15 -95 -3 -25 -9 -58 -11 -75 -8 -42 -36 -256 -49 -370 -3 -22
-7 -58 -10 -80 -2 -22 -7 -69 -10 -105 -3 -36 -8 -81 -10 -100 -2 -19 -7 -78
-11 -130 -3 -52 -7 -101 -9 -110 -1 -8 -6 -85 -10 -170 -5 -85 -9 -175 -11
-200 -1 -25 -5 -172 -8 -328 l-6 -282 320 0 320 0 0 63 c1 138 10 600 14 717
10 263 27 549 51 860 9 116 14 171 19 210 3 19 7 67 11 105 3 39 8 81 10 95 2
14 7 52 10 84 3 33 8 73 10 90 2 17 7 54 10 81 3 28 11 82 16 120 6 39 12 86
15 105 2 19 9 64 15 100 6 36 12 74 14 85 77 494 209 963 341 1207 129 240
275 298 416 166 36 -34 89 -101 101 -128 4 -8 17 -31 29 -50 35 -58 98 -208
144 -345 39 -120 107 -368 120 -440 2 -16 7 -37 9 -45 2 -8 6 -26 9 -40 9 -49
26 -135 31 -160 7 -35 33 -187 40 -235 3 -22 7 -47 10 -55 2 -8 6 -37 10 -65
3 -27 10 -81 16 -120 5 -38 12 -90 15 -115 2 -25 6 -58 9 -75 6 -41 13 -109
20 -180 9 -85 15 -144 20 -190 2 -22 7 -80 10 -130 3 -49 8 -112 10 -140 8
-85 20 -288 30 -530 5 -110 14 -493 15 -657 l0 -68 320 0 320 0 0 68 c2 286
14 691 25 877 3 38 7 115 10 170 3 55 7 123 10 150 2 28 7 86 10 130 3 44 8
98 10 120 4 37 11 105 20 195 15 148 18 177 20 191 2 9 8 61 15 115 6 55 14
113 16 129 3 17 7 44 10 60 2 17 6 41 8 55 3 14 8 44 11 68 10 71 62 351 85
452 12 52 23 106 26 120 10 51 84 308 113 390 117 335 250 524 385 545 127 21
254 -117 367 -398 51 -128 119 -340 135 -421 2 -10 10 -42 18 -70 8 -28 17
-62 20 -76 2 -14 16 -79 30 -145 14 -66 32 -163 41 -215 9 -52 18 -106 20
-120 8 -41 23 -142 30 -190 3 -25 8 -52 10 -60 2 -8 6 -35 9 -60 19 -158 27
-230 32 -270 3 -25 7 -58 9 -75 4 -28 8 -69 21 -203 3 -31 7 -75 9 -97 6 -62
14 -162 20 -250 3 -44 7 -107 10 -140 5 -57 7 -96 20 -350 14 -277 23 -632 25
-942 l0 -73 320 0 320 0 -5 278 c-3 152 -7 304 -9 337 -3 33 -8 125 -11 204
-4 80 -8 152 -10 160 -1 9 -6 54 -9 101 -16 203 -24 299 -31 340 -2 14 -6 50
-10 80 -26 233 -93 686 -115 770 -5 19 -12 53 -16 75 -5 34 -12 72 -39 196 -2
9 -15 65 -30 125 -14 60 -28 117 -30 127 -31 144 -169 566 -249 762 -44 106
-172 363 -192 386 -8 8 -14 19 -14 24 0 17 -148 213 -212 281 -251 264 -542
303 -811 107 -266 -195 -516 -625 -706 -1217 -28 -88 -51 -166 -51 -173 0 -7
-4 -13 -10 -13 -5 0 -10 7 -10 15 0 9 -31 109 -69 223 -201 605 -444 1003
-723 1188 -37 24 -70 44 -74 44 -3 0 -20 6 -37 14 -100 45 -232 55 -333 27z"/>
</g>
</svg>
